<svg width="1600" height="1200" viewBox="0 0 1600 1200" fill="none" xmlns="http://www.w3.org/2000/svg">
  <rect width="1600" height="1200" fill="#E8E3D7"/>
  <rect width="1600" height="1200" fill="url(#paint0_linear)"/>
  <g opacity="0.32">
    <path d="M0 987H1600" stroke="#132027" stroke-opacity="0.12"/>
    <path d="M0 855H1600" stroke="#132027" stroke-opacity="0.12"/>
    <path d="M0 723H1600" stroke="#132027" stroke-opacity="0.12"/>
    <path d="M0 591H1600" stroke="#132027" stroke-opacity="0.12"/>
    <path d="M0 459H1600" stroke="#132027" stroke-opacity="0.12"/>
    <path d="M0 327H1600" stroke="#132027" stroke-opacity="0.12"/>
    <path d="M0 195H1600" stroke="#132027" stroke-opacity="0.12"/>
    <path d="M191 0V1200" stroke="#132027" stroke-opacity="0.12"/>
    <path d="M383 0V1200" stroke="#132027" stroke-opacity="0.12"/>
    <path d="M575 0V1200" stroke="#132027" stroke-opacity="0.12"/>
    <path d="M767 0V1200" stroke="#132027" stroke-opacity="0.12"/>
    <path d="M959 0V1200" stroke="#132027" stroke-opacity="0.12"/>
    <path d="M1151 0V1200" stroke="#132027" stroke-opacity="0.12"/>
    <path d="M1343 0V1200" stroke="#132027" stroke-opacity="0.12"/>
  </g>
  <path d="M0 754C157 709 255 705 341 702C428 698 484 702 579 654C688 599 693 559 803 535C947 502 1082 532 1220 493C1344 459 1433 387 1600 269V1200H0V754Z" fill="#8CA9AC"/>
  <path d="M0 864C150 833 270 809 382 783C523 749 663 692 794 702C928 712 1011 775 1143 764C1276 754 1422 673 1600 547V1200H0V864Z" fill="#6A8486"/>
  <path d="M0 995C177 925 297 924 410 898C559 864 667 785 803 807C937 829 1034 938 1154 955C1275 972 1392 922 1600 803V1200H0V995Z" fill="#D1B47B"/>
  <path d="M1600 0V369C1459 477 1359 543 1202 576C1080 601 968 584 834 609C707 633 617 693 521 758C426 822 353 853 278 876C198 900 114 910 0 934V0H1600Z" fill="url(#paint1_radial)"/>
  <g opacity="0.9">
    <path d="M1067 226C1123 206 1162 209 1204 237C1242 262 1248 320 1215 358C1178 402 1093 439 1029 415C985 399 978 353 992 315C1008 272 1025 241 1067 226Z" fill="#132027"/>
    <path d="M1037 236C1082 220 1118 225 1146 248C1172 269 1172 307 1143 340C1113 374 1054 402 1009 388C977 378 972 348 982 322C994 290 1002 249 1037 236Z" fill="#F3EFE6"/>
  </g>
  <g opacity="0.65">
    <path d="M1121 510C1168 465 1220 434 1302 429C1381 424 1454 452 1600 527V1200H1046C1034 1054 1048 922 1065 805C1086 663 1095 535 1121 510Z" fill="url(#paint2_linear)"/>
  </g>
  <defs>
    <linearGradient id="paint0_linear" x1="211" y1="84" x2="1282" y2="1139" gradientUnits="userSpaceOnUse">
      <stop stop-color="#EEF1E9"/>
      <stop offset="0.57" stop-color="#EDE6D8"/>
      <stop offset="1" stop-color="#E7E0D2"/>
    </linearGradient>
    <radialGradient id="paint1_radial" cx="0" cy="0" r="1" gradientUnits="userSpaceOnUse" gradientTransform="translate(1198 202) rotate(140.12) scale(935.833 559.887)">
      <stop stop-color="#F7F2E8"/>
      <stop offset="1" stop-color="#F7F2E8" stop-opacity="0"/>
    </radialGradient>
    <linearGradient id="paint2_linear" x1="1323" y1="429" x2="1332" y2="1200" gradientUnits="userSpaceOnUse">
      <stop stop-color="#B86F3D" stop-opacity="0.38"/>
      <stop offset="1" stop-color="#B86F3D" stop-opacity="0"/>
    </linearGradient>
  </defs>
</svg>
